<?xml version="1.0" encoding="UTF-8"?>
<svg width="193px" height="37px" viewBox="0 0 193 37" version="1.1" xmlns="http://www.w3.org/2000/svg" xmlns:xlink="http://www.w3.org/1999/xlink">
    <!-- Generator: Sketch 54 (76480) - https://sketchapp.com -->
    <title>编组 2</title>
    <desc>Created with Sketch.</desc>
    <g id="组件" stroke="none" stroke-width="1" fill="none" fill-rule="evenodd">
        <g id="侧导航" transform="translate(-25.000000, -14.000000)" fill="#FFFFFF">
            <g id="Group-12">
                <g id="Group-3">
                    <g id="编组-3" transform="translate(0.000000, 14.000000)">
                        <g id="编组-2" transform="translate(25.453440, 0.453440)">
                            <path d="M13.5686013,11.5127526 C12.8875695,11.5127526 12.3350921,11.3286863 12.3350921,11.1009208 C12.3350921,10.8731552 12.8875695,10.6904131 13.5686013,10.6904131 C14.2496331,10.6904131 14.8021105,10.8731552 14.8021105,11.1009208 C14.8021105,11.3286863 14.2435114,11.5127526 13.5686013,11.5127526 M15.9240048,15.7440936 L15.9187028,15.7440936 C18.7605392,13.2404349 17.3820365,19.0273243 21.2877943,19.0273243 C24.552018,19.0273243 26.1037173,10.901719 22.3623195,8.70190239 C18.2975037,6.3110993 12.6933599,9.08387528 9.97346794,9.13769873 C4.964908,9.23666444 2.74339782,3.80049563 1.89685575,8.48487233 C0.836469034,14.3585737 3.01733106,15.891674 10.4011573,19.4492307 C17.4403578,22.8401083 21.6500931,28.477681 23.4792601,33.7159184 C23.4792601,33.7159184 28.0459923,32.9103028 30.4265605,28.9169498 C27.0686692,19.4943729 13.0591933,18.266851 15.9240048,15.7440936 M2.97554694,17.9478076 C6.90205383,18.9628474 15.2374569,24.2913755 15.1611968,30.2316849 C5.92663432,29.247665 0.771098855,19.7969378 0.0865317107,16.481256 L0.0209125803,16.4467894 C-0.546604223,28.9426361 10.5341614,36.5735296 21.3808263,34.0609183 C20.4923078,25.9681731 10.4330724,19.0042072 2.97554694,17.9478076 M27.9615129,3.44809918 C22.2240482,-1.52790558 8.97046939,-1.50856422 3.28935789,6.08555754 C4.08358643,5.33300275 6.36237077,7.42011146 7.64088501,6.68689804 C12.3798407,4.02482341 20.6937054,3.65733754 25.1209571,6.38622779 C35.5322191,12.8040431 32.1439803,26.3148631 32.1439803,26.3148631 C36.4004113,16.7356144 34.9669256,9.51952831 27.9615129,3.44809918" id="Fill-1"></path>
                            <path d="M187.825058,34.8032046 L187.825058,28.6827273 L186.303915,28.6827273 L186.303915,36.054148 L191.605097,36.054148 L191.605097,34.8032046 L187.825058,34.8032046 Z M179.554671,33.1145943 L180.573175,30.3546801 L181.608214,33.1145943 L179.554671,33.1145943 Z M179.786149,28.6203434 L176.846706,36.054148 L178.46044,36.054148 L179.082125,34.3655377 L182.091011,34.3655377 L182.752377,36.054148 L184.405793,36.054148 L181.3936,28.6203434 L179.786149,28.6203434 Z M170.385157,29.8778192 L172.620575,29.8778192 L172.620575,36.054148 L174.13808,36.054148 L174.13808,29.8778192 L176.367216,29.8778192 L176.367216,28.6203434 L170.385157,28.6203434 L170.385157,29.8778192 Z M166.906039,36.054148 L168.423875,36.054148 L168.423875,28.6203434 L166.906039,28.6203434 L166.906039,36.054148 Z M162.901796,31.520703 C162.785065,31.6885842 162.618731,31.8162915 162.425282,31.8865141 C162.03739,31.9802532 161.636933,32.014548 161.23846,31.9877654 L160.404808,31.9877654 L160.404808,29.8778192 L161.129334,29.913747 C161.493747,29.9039485 161.858491,29.920606 162.220258,29.9630662 C162.455374,30.0009538 162.670979,30.115923 162.832353,30.2896833 C162.99075,30.4706291 163.076728,30.7031805 163.073421,30.9429174 C163.079042,31.1486862 163.018858,31.3508622 162.901796,31.520703 L162.901796,31.520703 Z M163.132944,28.7313932 C162.535399,28.6330815 161.929257,28.5958471 161.324107,28.6203434 L158.886972,28.6203434 L158.886972,36.054148 L160.404808,36.054148 L160.404808,33.2517735 L161.396857,33.2517735 C161.924958,33.2638583 162.453059,33.2279305 162.974547,33.1439899 C163.257281,33.0783398 163.524803,32.9584714 163.761242,32.7912434 C164.031079,32.6024588 164.249992,32.3509636 164.39946,32.0599478 C164.579683,31.7019755 164.667314,31.3061156 164.654417,30.9066629 C164.677565,30.3896281 164.523797,29.8801055 164.217585,29.4600759 C163.950393,29.1027568 163.567792,28.8460358 163.132944,28.7313932 L163.132944,28.7313932 Z M155.44456,31.9227686 C154.916789,31.681072 154.361903,31.5024125 153.791144,31.3903828 C153.297434,31.3123213 152.822573,31.1424805 152.392685,30.8906587 C152.251152,30.7822218 152.168151,30.6163004 152.16782,30.4399271 C152.162529,30.2553885 152.253798,30.0813016 152.408888,29.9790704 C152.717746,29.7837534 153.081498,29.6900143 153.447233,29.7112444 C153.786845,29.6867482 154.125464,29.7742815 154.409521,29.9594734 C154.647283,30.1747141 154.795759,30.4689961 154.826182,30.7858146 L156.347656,30.717225 C156.348648,30.0904469 156.073519,29.4940441 155.593367,29.0841397 C155.117514,28.6748885 154.406215,28.4700996 153.460461,28.4700996 C152.954515,28.4583414 152.450554,28.5458747 151.979331,28.7281271 C151.596399,28.8809838 151.269354,29.1439106 151.04019,29.4826125 C150.824916,29.7961649 150.710169,30.1658954 150.709507,30.544118 C150.702232,31.1199439 150.955866,31.6680073 151.400635,32.0400242 C151.908234,32.4113878 152.495196,32.6625563 153.11655,32.7749126 C153.748155,32.9320154 154.155226,33.039799 154.333795,33.1015297 C154.540803,33.1632603 154.7283,33.2752899 154.879091,33.4281467 C154.985571,33.5545475 155.042118,33.7145899 155.03815,33.8788783 C155.03319,34.1617287 154.894964,34.4262885 154.664478,34.5941697 C154.345369,34.8283541 153.953179,34.9443032 153.556359,34.9207868 C153.159208,34.9400572 152.768341,34.8172491 152.455184,34.5748993 C152.154262,34.286823 151.963788,33.904681 151.91617,33.4934701 L150.43504,33.6375083 C150.494563,34.3560658 150.829545,35.0249776 151.370874,35.5086975 C151.880126,35.9444047 152.610935,36.1619316 153.563303,36.1619316 C154.121827,36.1782625 154.678036,36.0851766 155.200185,35.8875733 C155.618168,35.7236115 155.974645,35.434882 156.218689,35.0612321 C156.67437,34.3367954 156.695865,33.4248806 156.274905,32.6801936 C156.072527,32.3581492 155.785825,32.0958757 155.44456,31.9227686 L155.44456,31.9227686 Z M146.430136,34.2482822 C146.392107,34.2887827 146.352425,34.3279768 146.31109,34.3655377 C145.484713,35.1170836 144.198024,35.0644983 143.437784,34.2482822 C143.008557,33.7038115 142.798904,33.0221617 142.848837,32.3339795 C142.848837,31.4782428 143.040633,30.8370935 143.424226,30.4105316 C143.807488,29.9849496 144.363035,29.7514183 144.939085,29.7736283 C145.510837,29.7497853 146.063078,29.9813568 146.443363,30.4036726 C146.82398,30.8220691 147.012138,31.4586458 147.012138,32.3078502 C147.009824,33.1658732 146.816043,33.812575 146.430136,34.2482822 L146.430136,34.2482822 Z M144.909324,28.4932894 C144.354438,28.4821844 143.803189,28.5821292 143.288646,28.7869181 C142.921257,28.9433677 142.589581,29.1710198 142.31313,29.4564831 C142.021137,29.7530514 141.784037,30.0982857 141.612082,30.4755284 C141.371014,31.0820563 141.258582,31.7316977 141.281399,32.3829721 C141.281399,33.5653259 141.612082,34.4994507 142.253607,35.1657496 C143.764168,36.5120651 146.060763,36.5120651 147.571324,35.1657496 C148.23269,34.486386 148.563373,33.548995 148.563373,32.3470442 C148.563373,31.14542 148.23269,30.1913715 147.571324,29.5123346 C146.868622,28.8179468 145.902035,28.4478896 144.909324,28.4932894 L144.909324,28.4932894 Z M137.445474,31.5598971 L134.469325,31.5598971 L134.469325,28.6203434 L132.948513,28.6203434 L132.948513,36.054148 L134.469325,36.054148 L134.469325,32.8043081 L137.445474,32.8043081 L137.445474,36.054148 L138.96331,36.054148 L138.96331,28.6203434 L137.445474,28.6203434 L137.445474,31.5598971 Z M120.957941,29.8778192 L123.189722,29.8778192 L123.189722,36.054148 L124.727398,36.054148 L124.727398,29.8778192 L126.94,29.8778192 L126.94,28.6203434 L120.957941,28.6203434 L120.957941,29.8778192 Z M114.952403,32.7618479 L118.728805,32.7618479 L118.728805,31.5109045 L114.952403,31.5109045 L114.952403,29.8778192 L119.013524,29.8778192 L119.013524,28.6203434 L113.431261,28.6203434 L113.431261,36.054148 L119.155387,36.0378171 L119.155387,34.7868738 L114.952403,34.7868738 L114.952403,32.7618479 Z M108.904208,31.8705099 C108.512679,31.9707814 108.107923,32.010302 107.703828,31.9877654 L106.870506,31.9877654 L106.870506,29.8778192 L107.621157,29.8974162 C107.985901,29.8876177 108.350644,29.9042751 108.712412,29.9464087 C108.947858,29.9846229 109.163133,30.0999188 109.324175,30.2730258 C109.485879,30.4529918 109.571857,30.686523 109.565574,30.92626 C109.574503,31.3489024 109.307972,31.7294113 108.904208,31.8705099 L108.904208,31.8705099 Z M109.61187,28.7313932 C109.014656,28.6330815 108.408514,28.5958471 107.803033,28.6203434 L105.366228,28.6203434 L105.366228,36.054148 L106.883733,36.054148 L106.883733,33.2517735 L107.875783,33.2517735 C108.403884,33.2638583 108.931985,33.2279305 109.453142,33.1439899 C109.736207,33.0783398 110.003729,32.9584714 110.240168,32.7912434 C110.510005,32.6014789 110.73024,32.350637 110.881693,32.0599478 C111.058939,31.7013223 111.145578,31.3054624 111.133343,30.9066629 C111.156491,30.3896281 111.002723,29.8801055 110.696511,29.4600759 C110.429319,29.1027568 110.046718,28.8460358 109.61187,28.7313932 L109.61187,28.7313932 Z M97.3736157,36.054148 L98.8947583,36.054148 L98.8947583,28.6203434 L97.3736157,28.6203434 L97.3736157,36.054148 Z M90.7100187,33.1145943 L91.7255468,30.3546801 L92.7635613,33.1145943 L90.7100187,33.1145943 Z M90.9418276,28.6203434 L88.0215644,36.054148 L89.6190949,36.054148 L90.2374724,34.3655377 L93.2463588,34.3655377 L93.9077252,36.054148 L95.5611411,36.054148 L92.5486173,28.6203434 L90.9418276,28.6203434 Z M85.5215995,31.520703 C85.405199,31.6885842 85.2388654,31.8162915 85.0454157,31.8865141 C84.6519027,31.9818863 84.2458238,32.0161811 83.8417289,31.9877654 L83.0084073,31.9877654 L83.0084073,29.8778192 L83.7458308,29.913747 C84.1115664,29.9039485 84.477302,29.920606 84.8403921,29.9630662 C85.0755079,30.0019336 85.2907826,30.1165762 85.452156,30.2896833 C85.610884,30.4706291 85.6968616,30.7031805 85.6935548,30.9429174 C85.697523,31.1483596 85.6373386,31.3502089 85.5215995,31.520703 L85.5215995,31.520703 Z M85.7365436,28.7313932 C85.1393297,28.6330815 84.5331874,28.5961738 83.9280372,28.6203434 L81.4905714,28.6203434 L81.4905714,36.054148 L83.0084073,36.054148 L83.0084073,33.2517735 L84.0004568,33.2517735 C84.5275658,33.2638583 85.0543442,33.2279305 85.5748395,33.1439899 C85.8588964,33.0783398 86.1270804,32.958798 86.3651723,32.7912434 C86.6340177,32.6014789 86.8525993,32.3503104 87.0030602,32.0599478 C87.1819598,31.7019755 87.2685988,31.305789 87.2547101,30.9066629 C87.2778579,30.3896281 87.1240902,29.8801055 86.8178776,29.4600759 C86.5513469,29.1034101 86.1700692,28.8466891 85.7365436,28.7313932 L85.7365436,28.7313932 Z M75.7598318,33.3203631 L77.4893048,33.3108912 L77.4893048,34.2544879 C77.238647,34.4432726 76.9612038,34.5951495 76.6662344,34.7052195 C76.3616752,34.8234549 76.0376057,34.8858387 75.7102293,34.888125 C75.1173143,34.9119681 74.5449017,34.6725578 74.1494046,34.2348909 C73.7506007,33.7821996 73.5511988,33.1201468 73.5511988,32.2493857 C73.5012656,31.580474 73.7119108,30.9177679 74.1394841,30.3971403 C74.5518461,29.973518 75.1292189,29.7461925 75.7234566,29.7736283 C76.1159776,29.7615435 76.5012235,29.8761861 76.8213248,30.1002454 C77.1146408,30.3131997 77.3256167,30.6182601 77.4198614,30.965454 L78.9277767,30.6848899 C78.8050933,30.0443939 78.4439872,29.4721607 77.9158862,29.0808735 C77.2680778,28.658231 76.4989087,28.454422 75.7234566,28.4994951 C75.1014415,28.4792448 74.483064,28.6066255 73.9212332,28.8718386 C73.3071546,29.1736327 72.8035241,29.6563728 72.4794545,30.2534288 C72.1467873,30.8890256 71.9797922,31.5961516 71.9936809,32.3111163 C71.9864059,32.996359 72.1368668,33.674416 72.4331589,34.293682 C72.7142396,34.8855121 73.1771961,35.3747845 73.7558916,35.6919297 C74.3878272,36.0293251 75.097804,36.1981861 75.8160479,36.1818553 C76.444346,36.1802222 77.0670224,36.06264 77.6516703,35.8353146 C78.1619145,35.6589413 78.6324766,35.3858895 79.0372329,35.0318366 L79.0372329,32.0694197 L75.7598318,32.0694197 L75.7598318,33.3203631 Z M68.1805731,33.5852495 L65.1055501,28.6203434 L63.6270656,28.6203434 L63.6270656,36.054148 L65.0324691,36.054148 L65.0324691,31.2071506 L68.0684715,36.054148 L69.5925903,36.054148 L69.5925903,28.6203434 L68.1805731,28.6203434 L68.1805731,33.5852495 Z M59.5828102,36.054148 L61.1039529,36.054148 L61.1039529,28.6203434 L59.5828102,28.6203434 L59.5828102,36.054148 Z M53.6305128,31.7656658 L52.5065206,31.7656658 L52.519748,29.8683473 L53.6903665,29.8683473 C54.3084133,29.8683473 54.6787785,29.8778192 54.8011313,29.8944766 C55.0210356,29.9209326 55.2237444,30.023817 55.3732132,30.1848392 C55.5144149,30.3559865 55.5861732,30.572207 55.5749299,30.7926736 C55.583197,30.9883172 55.5302877,31.1823277 55.4228157,31.347596 C55.322288,31.501106 55.1718271,31.6160752 54.9962344,31.6742131 C54.5461745,31.7565206 54.0878476,31.7872226 53.6305128,31.7656658 L53.6305128,31.7656658 Z M55.9684429,33.3987512 C55.7296897,33.1528085 55.4555533,32.9427938 55.1549623,32.7749126 C55.7184464,32.7278797 56.2462168,32.4829169 56.6430366,32.0860772 C56.9846324,31.7065481 57.163532,31.2113967 57.1426989,30.7041603 C57.1503047,30.2909898 57.0352269,29.8843515 56.8120158,29.5348712 C56.6109604,29.2059678 56.3030943,28.9541461 55.9386815,28.8199065 C55.368253,28.6598641 54.775338,28.592581 54.1827537,28.6203434 L50.9850473,28.6203434 L50.9850473,36.054148 L52.5161105,36.054148 L52.5161105,32.9512858 L52.8236458,32.9512858 C53.0809173,32.9411607 53.3385195,32.9689231 53.5878547,33.0329401 C53.7624554,33.0992433 53.9188685,33.2057205 54.0438668,33.3432263 C54.3361907,33.6900936 54.6047055,34.0555781 54.8477576,34.4373935 L55.9452951,36.054148 L57.7541322,36.054148 L56.8348329,34.6042948 C56.5828523,34.1777329 56.2928431,33.7746874 55.9684429,33.3987512 L55.9684429,33.3987512 Z M179.981252,8.25609557 L180.070867,8.25609557 L180.070867,7.39023371 C180.075497,7.13841195 180.173049,6.89736855 180.345334,6.7108702 C180.554326,6.50738777 180.843674,6.40613647 181.135667,6.43357231 L188.149127,6.43357231 C188.433184,6.41822131 188.710296,6.52404524 188.909698,6.72393489 C189.106124,6.92284468 189.213266,7.1909973 189.207644,7.46894843 L189.207644,8.24597044 L191.455959,8.24597044 L191.455959,6.80885532 C191.490681,6.03771242 191.166611,5.29302549 190.576342,4.78742226 C189.962594,4.31938 189.197723,4.08715526 188.423925,4.13418812 L185.778459,4.13418812 L185.778459,3.3437748 L183.490132,3.3437748 L183.490132,4.13418812 L180.725289,4.13418812 C179.892629,4.08748188 179.075842,4.3749049 178.46044,4.93080716 C178.035512,5.31850162 177.7875,5.8593795 177.772619,6.42997952 L177.772619,8.24923661 L179.981252,8.24923661 L179.981252,8.25609557 Z M177.805357,11.6264571 L191.455959,11.6264571 L191.455959,9.32380678 L177.805357,9.32380678 L177.805357,11.6264571 Z M177.306025,19.2924865 L177.306025,13.269341 C177.309994,13.0593262 177.293459,12.8493115 177.256423,12.6422362 C177.202191,12.393354 177.043463,12.1781134 176.820252,12.0510593 C177.147959,11.6947201 177.322229,11.2260246 177.306025,10.744591 L177.306025,5.13657591 C177.289491,4.6522028 177.078846,4.19428566 176.721047,3.86276933 C176.278923,3.45939725 175.687992,3.25362849 175.087141,3.29445563 L172.180436,3.29445563 C171.664239,3.28857652 171.168545,3.49467189 170.811738,3.86276933 C170.404667,4.29521034 170.196337,4.8743024 170.236349,5.46319299 L170.236349,22.6726465 L172.53096,22.6726465 L172.53096,6.12001992 C172.513434,5.98284075 172.538896,5.84370188 172.604041,5.72122047 C172.74392,5.58828733 172.93737,5.52557685 173.129827,5.5513796 L174.329877,5.5513796 C174.66056,5.5513796 174.793164,5.61996918 174.84938,5.67876025 C174.9509,5.81528619 175.000502,5.98349398 174.988267,6.15235501 L174.988267,10.4408372 C174.988267,10.7968498 174.799447,10.9637511 174.39932,10.9637511 L173.543181,10.9637511 L173.543181,13.269341 L174.455536,13.269341 C174.819618,13.269341 174.988267,13.4620451 174.988267,13.8735826 L174.988267,18.4462216 C174.988267,18.8479606 174.799447,19.0373985 174.39932,19.0373985 L173.737954,19.0373985 L173.737954,21.323718 L175.321926,21.323718 C176.41781,21.3243713 177.306687,20.447731 177.307348,19.3653221 C177.307348,19.3411524 177.307017,19.3166561 177.306025,19.2924865 L177.306025,19.2924865 Z M179.885354,22.1206637 C181.026211,21.5360191 181.823488,20.3833875 182.256353,18.6911844 C182.497421,17.6012633 182.667392,16.4972975 182.765605,15.3861463 L186.697759,15.3861463 L186.697759,20.5137077 C186.671635,21.1078241 186.886909,21.6878961 187.295964,22.1242565 C187.637891,22.4874547 188.11672,22.6942033 188.618697,22.6958363 L191.594846,22.6958363 L191.594846,20.4095168 L191.525402,20.4026579 L189.78634,20.4026579 C189.372986,20.4026579 189.21062,20.3308021 189.14779,20.2723377 C189.019816,20.079307 188.964922,19.8480621 188.992369,19.6191035 L188.992369,15.3629565 L191.525402,15.3629565 L191.525402,13.0766369 L177.785847,13.0766369 L177.785847,15.3629565 L180.503732,15.3629565 C180.454129,16.0455861 180.404857,16.5812381 180.361869,16.9503154 C180.199503,18.2077912 179.885354,19.1059881 179.432318,19.6191035 C179.015657,20.1478966 178.387359,20.4722273 177.709459,20.5071753 L177.636708,20.5071753 L177.636708,22.7412361 L177.732607,22.7412361 C178.48425,22.6732998 179.215059,22.4626318 179.885354,22.1206637 L179.885354,22.1206637 Z M154.459454,16.1599021 C153.434006,16.7481395 151.959159,17.1858063 150.067651,17.4663704 L149.995231,17.4663704 L149.995231,19.7526899 L150.094106,19.7526899 C153.348028,19.3117569 155.765653,18.3743659 157.280182,16.9699124 C157.962712,16.2840166 158.515945,15.4834782 158.913426,14.6052048 L159.879021,14.6052048 C160.564197,15.9116731 161.549633,17.0414416 162.755965,17.9043639 C164.187493,18.8606987 165.816107,19.4910696 167.524417,19.7494237 L167.627259,19.7693474 L167.627259,17.4830279 L167.554178,17.4830279 C166.491693,17.3386631 165.469882,16.9819973 164.551575,16.4345871 C163.820104,15.9515204 163.186184,15.3378069 162.683545,14.6251285 L167.557485,14.6251285 L167.557485,12.338809 L159.598271,12.338809 C159.670691,11.7995642 159.737158,10.980082 159.799657,9.83986176 L167.170586,9.83986176 L167.170586,7.57313927 L153.867532,7.57313927 L154.131747,6.29933269 L154.155226,6.19481523 L151.793817,6.19481523 L151.793817,6.26667098 C151.698581,7.03258802 151.458174,7.77368216 151.086155,8.4517392 C150.792839,8.88907946 150.415199,9.26566894 149.97506,9.55897108 L149.939015,9.58510044 L149.939015,12.1425121 L150.061368,12.083721 C150.578557,11.8514963 151.065984,11.5588474 151.512737,11.2116535 C152.016036,10.8033821 152.461136,10.3297874 152.835469,9.80393388 L157.280182,9.80393388 C157.220328,10.9245571 157.154192,11.7440393 157.078465,12.3025545 L149.859321,12.3025545 L149.859321,14.588874 L156.142301,14.588874 C155.699186,15.223491 155.125781,15.7584897 154.459454,16.1599021 L154.459454,16.1599021 Z M167.66661,20.3634638 L150.011435,20.3634638 C149.613623,20.404291 149.218787,20.2648255 148.936715,19.984588 C148.737643,19.7223145 148.642076,19.3970039 148.669192,19.0700602 L148.669192,6.61615125 C148.668861,6.32807499 148.797166,6.05436989 149.019385,5.86819816 C149.281617,5.66340925 149.611639,5.56248458 149.945298,5.5840413 L167.653383,5.5840413 L167.653383,3.32711733 L149.644377,3.32711733 C149.219779,3.31241956 148.795513,3.35945242 148.384474,3.46788929 C147.816029,3.63936325 147.315375,3.98198456 146.952615,4.44774051 C146.546206,4.9507308 146.337545,5.77674538 146.337545,6.90030811 L146.337545,18.8218313 C146.323656,19.3571566 146.356063,19.892482 146.433443,20.4225815 C146.602753,21.1871921 147.091502,21.8459787 147.779323,22.2349797 C148.023037,22.3927357 148.294528,22.5034589 148.579577,22.5615967 C149.018063,22.6200612 149.460186,22.643251 149.902309,22.6301863 L167.66661,22.6301863 L167.66661,20.3634638 Z M128.976677,3.34998053 L126.682067,3.34998053 L126.682067,6.68800701 L125.980688,6.68800701 L126.159587,3.80397826 L126.159587,3.70958592 L123.877543,3.70958592 L123.877543,3.79124019 C123.772055,5.14310826 123.633168,6.95583301 123.612996,7.07668132 C123.481053,7.93241805 123.133505,8.44553348 122.577958,8.59218454 L122.511821,8.60884201 L122.511821,10.8951615 L122.607719,10.8951615 C123.811075,10.8184065 124.876867,10.1011554 125.388765,9.02331908 L126.67876,9.02331908 L126.67876,15.8463497 C125.994246,16.2422096 125.282285,16.5900568 124.548829,16.8882582 C123.896722,17.122116 123.223782,17.2948964 122.538276,17.4043132 L122.465856,17.4043132 L122.465856,19.7592222 L122.561754,19.7592222 C123.322987,19.716762 124.078267,19.593954 124.813376,19.3934111 C125.451925,19.1690252 126.074932,18.9034855 126.67876,18.6000583 L126.67876,22.6889774 L128.97337,22.6889774 L128.97337,17.3066547 C129.689961,16.9140609 130.475664,16.6602795 131.288153,16.5587016 L131.367847,16.5587016 L131.367847,14.2099982 L131.271619,14.2099982 C130.489884,14.2785878 129.720714,14.4477754 128.983622,14.7129885 L128.983622,9.02331908 L131.367847,9.02331908 L131.367847,6.68800701 L128.976677,6.68800701 L128.976677,3.34998053 Z M135.302977,17.5254881 L136.344299,8.63137859 L136.331071,8.53339347 L134.016289,8.53339347 L134.016289,8.61210818 L133.120138,16.9960418 C132.958103,18.5540053 132.488533,19.5374493 131.727961,19.9127323 L131.678359,19.9388616 L131.678359,22.6661142 L131.797405,22.6203878 C133.814903,21.8430392 134.995111,20.1282995 135.302977,17.5254881 L135.302977,17.5254881 Z M142.627279,22.1373212 C143.424226,21.5657413 143.830966,20.6737501 143.830966,19.4881301 L143.830966,7.62213184 C143.86172,6.68670054 143.439107,5.79307623 142.693747,5.21496401 C142.197722,4.82661631 141.469888,4.63031945 140.530748,4.63031945 L135.881673,4.63031945 L136.212356,3.49695821 L136.242118,3.38623502 L133.765301,3.38623502 L133.748766,3.45449799 C133.611202,4.12602269 133.383031,4.77631728 133.070866,5.38807106 C132.778873,5.93744098 132.260361,6.33428072 131.648597,6.47570591 L131.579154,6.49203676 L131.579154,8.81461077 L131.684973,8.79468713 C132.314924,8.69702862 132.92272,8.49125987 133.480582,8.18717937 C134.013313,7.85076379 134.472301,7.41211706 134.82977,6.89736855 L140.451384,6.89736855 C140.733787,6.89050959 141.00594,7.00057955 141.202365,7.20079581 C141.466912,7.49671088 141.601169,7.88473196 141.576037,8.27863215 L141.576037,18.8610253 C141.576037,19.4522022 141.456661,19.8670059 141.225183,20.0891055 C140.927568,20.3294957 140.546951,20.4464246 140.16369,20.4157226 L139.205039,20.4157226 L139.205039,22.6857112 L140.22685,22.6857112 C140.650455,22.696163 141.07406,22.6700336 141.493367,22.6073231 C141.90176,22.5348141 142.28899,22.3741185 142.627279,22.1373212 L142.627279,22.1373212 Z M135.587034,19.9551925 L135.587034,22.6595819 L135.703104,22.6203878 C137.746726,21.9478833 138.943799,20.1968891 139.267538,17.4108455 L140.296294,8.63137859 L140.296294,8.53339347 L137.964977,8.53339347 L137.964977,8.61210818 L137.035427,16.9503154 C136.922994,17.9954901 136.741449,18.740177 136.496413,19.1585735 C136.304947,19.5021746 136.004026,19.7742466 135.639944,19.9326559 L135.587034,19.9551925 Z M117.15806,17.4500395 C117.965919,17.2723599 118.687139,16.8262009 119.201682,16.1860315 C119.651081,15.5337772 119.947042,14.7907233 120.068403,14.0107618 L120.097834,13.9225752 L117.736756,13.9225752 L117.736756,14.0074956 C117.747999,14.2887129 117.649786,14.5633979 117.462619,14.7753723 C117.224197,15.0363394 116.540013,15.2914273 115.435201,15.5425958 L112.128369,16.3006741 L112.128369,12.4890528 L120.064765,12.4890528 L120.064765,10.2187376 L115.798952,10.2187376 L115.798952,8.47492901 L113.48417,8.47492901 L113.48417,10.2187376 L106.539823,10.2187376 L106.88704,8.16137662 L106.906881,8.05653254 L104.555724,8.05653254 L104.555724,8.1283883 L104.158904,10.2187376 L98.6728699,10.2187376 L98.6728699,12.4890528 L103.656596,12.4890528 C102.99523,15.1019894 102.118589,17.0907608 101.076937,18.4004952 C100.397383,19.1706583 99.6010976,19.8317312 98.7158587,20.3601977 L98.6728699,20.386327 L98.6728699,22.8686168 L98.7955534,22.8228904 C99.4602266,22.5782542 100.102083,22.2767866 100.713185,21.9217539 C102.035257,21.0653639 103.119897,19.896728 103.867903,18.5213435 C104.730986,17.0091065 105.471716,14.9811411 106.07356,12.4890528 L109.787132,12.4890528 L109.787132,16.8229348 L106.149617,17.6656068 L106.080173,17.6819377 L106.080173,20.0107174 L106.189299,19.9881808 L109.777211,19.1647792 L109.777211,19.4913962 C109.742159,20.4402188 110.122775,21.3583394 110.822501,22.0096139 C111.420707,22.5517982 112.439211,22.8261566 113.851228,22.8261566 L120.097834,22.8261566 L120.097834,20.5235062 L120.015163,20.5173005 L113.553613,20.5173005 C113.028158,20.5173005 112.677303,20.4418519 112.511961,20.2916081 C112.237164,20.017903 112.093978,19.6409869 112.118779,19.256232 L112.118779,18.6029978 L117.15806,17.4500395 Z M100.895392,8.87634139 L100.981039,8.87634139 L100.981039,7.85076379 C100.963182,7.58587734 101.048498,7.32425707 101.219461,7.11914154 C101.467474,6.85196878 101.820974,6.70401124 102.188032,6.71413637 L115.980828,6.74026574 L116.672287,6.71413637 C116.991065,6.71185005 117.294632,6.85098893 117.498995,7.09301218 C117.629284,7.23933663 117.701703,7.42746806 117.703687,7.62213184 L117.703687,8.87634139 L120.058152,8.87634139 L120.058152,7.17140028 C120.027067,6.7624757 119.896778,6.36694243 119.677866,6.01844201 C119.482432,5.67092144 119.218216,5.36553448 118.900761,5.12024506 C118.304208,4.68029186 117.575382,4.45035344 116.831014,4.46701092 L110.508021,4.46701092 L110.508021,3.35977904 L108.193239,3.35977904 L108.193239,4.46701092 L101.467474,4.46701092 C100.79784,4.47550296 100.154661,4.72536502 99.6583058,5.16923762 C99.0399282,5.64773163 98.6808063,6.38229343 98.6860972,7.15833559 L98.6860972,8.86327671 L98.7753817,8.86327671 L100.895392,8.87634139 Z M74.8372257,22.4570793 L79.6189046,22.4570793 L79.6189046,20.2230185 L74.8372257,20.2230185 L74.8372257,22.4570793 Z M74.8372257,13.7530609 L79.6189046,13.7530609 L79.6189046,11.4863384 L74.8372257,11.4863384 L74.8372257,13.7530609 Z M92.2083443,12.7304228 L91.6590795,11.0810066 L91.6392385,11.0222156 L89.2189682,11.0222156 L89.2586502,11.1365315 L91.2725108,17.247537 C91.6441987,18.4942343 92.2133045,19.674955 92.9589951,20.7456058 C93.7427142,21.7584453 94.8633996,22.4652447 96.1233025,22.7412361 L96.2327587,22.7673655 L96.2327587,20.4189887 L96.1699289,20.4026579 C95.5753605,20.221712 95.0588333,19.850675 94.7016955,19.3480114 C94.2036866,18.5801346 93.8214168,17.7449748 93.5671215,16.8686612 L92.9523814,14.990613 L96.2327587,14.990613 L96.2327587,12.7238905 L92.2083443,12.7238905 L92.2083443,12.7304228 Z M82.7934632,21.7613849 C83.2395548,21.1483247 83.4571444,20.401678 83.4085339,19.6484991 L83.4085339,7.46208947 C83.3668678,7.08974601 83.4981491,6.71870901 83.7656718,6.45284272 C83.9740022,6.28332846 84.3972767,6.1980814 85.0292122,6.1980814 L93.3921901,6.18175055 C95.045606,6.18175055 96.0045873,5.28681977 96.2291211,3.51655523 L96.2291211,3.41857011 L93.9341798,3.41857011 L93.9341798,3.49042587 C93.9226059,3.62825827 93.8670511,3.75825187 93.7754519,3.86276933 C93.6216842,3.94115743 93.4480755,3.97185943 93.276451,3.95095594 L84.6158582,3.95095594 C83.5375004,3.95095594 82.7174061,4.17338217 82.1787231,4.60419009 C81.4641168,5.18556847 81.1069789,6.03836565 81.1135926,7.13906519 L81.1135926,19.5861152 C81.1109471,19.8235658 81.0911061,20.0603632 81.0544003,20.2948742 C81.007774,20.3797947 80.8854212,20.4320534 80.6870113,20.4519771 L80.607978,20.4519771 L80.607978,22.7412361 L80.7038761,22.7412361 C81.5097511,22.7235988 82.2699917,22.3672596 82.7934632,21.7613849 L82.7934632,21.7613849 Z M74.8372257,5.98284075 L79.6189046,5.98284075 L79.6189046,3.71285209 L74.8372257,3.71285209 L74.8372257,5.98284075 Z M87.6511992,7.46894843 C86.6591497,7.46894843 85.9713286,7.61592611 85.5946805,7.89649018 C85.0619499,8.294963 84.7907897,8.97432652 84.7907897,9.92151603 L84.7907897,19.9813219 C84.7907897,20.8524096 84.9948212,21.4850669 85.4028842,21.8792937 C85.7864767,22.2382458 86.3949338,22.4247442 87.2414828,22.4247442 L91.3283963,22.4247442 L91.3283963,20.1870906 L87.7669383,20.1870906 C87.5685284,20.2096272 87.3691265,20.1544289 87.2113906,20.0335806 C87.1551744,19.9751161 87.0893685,19.831078 87.0893685,19.4851905 L87.0893685,10.5224914 C87.0695275,10.3337068 87.0966435,10.143289 87.1684018,9.96724242 C87.2642999,9.81373239 87.499085,9.73861047 87.8830081,9.73861047 L96.2327587,9.73861047 L96.2327587,7.46894843 L87.6349958,7.46894843 L87.6511992,7.46894843 Z M59.0705819,9.1996923 C59.5299009,9.43289689 60.0467587,9.53382156 60.5616324,9.49038149 L70.1980712,9.49038149 C70.9199526,9.51487777 71.6008293,9.1595184 71.9867366,8.55658328 C72.2119318,8.13524726 72.3127902,7.6596928 72.2780685,7.18446496 L72.2780685,3.72232399 L69.9831272,3.72232399 L69.9831272,6.3875193 C70.0109045,6.63313534 69.9536963,6.88071108 69.8207617,7.08974601 C69.7645456,7.15539604 69.6157381,7.23019135 69.2126353,7.23019135 L66.3456121,7.23019135 L66.3456121,3.37284372 L64.0503401,3.37284372 L64.0503401,7.25305454 L61.0216127,7.25305454 C60.7888118,7.26677246 60.5689075,7.14755723 60.4561445,6.9460345 C60.4306819,6.75790306 60.4230762,6.56748531 60.432666,6.37804741 L60.432666,3.7321225 L58.1377247,3.7321225 L58.1377247,7.48821884 C58.1145768,8.18293335 58.4707226,8.83616749 59.0705819,9.1996923 L59.0705819,9.1996923 Z M72.2780685,15.9315968 C72.2909651,15.4031304 72.0826347,14.8923013 71.702349,14.5202844 C71.2268266,14.103521 70.6005127,13.8948127 69.9662623,13.9421722 L66.2761686,13.9421722 L66.2761686,12.7826816 L72.3111368,12.7826816 L72.3111368,10.5126929 L58.1575656,10.5126929 L58.1575656,12.7826816 L63.9676693,12.7826816 L63.9676693,13.9421722 L59.9134934,13.9421722 C59.2289792,13.9493578 58.5996891,14.3148423 58.2600774,14.9024264 C58.0550539,15.2061803 57.9561796,15.7222352 57.9561796,16.4770473 L57.9561796,22.7774906 L60.2709619,22.7774906 L60.2709619,16.9375774 C60.2491368,16.7256029 60.305353,16.5133018 60.4293592,16.3398681 C60.546421,16.2343708 60.7021728,16.1824387 60.8592473,16.19583 L62.0993093,16.19583 L62.0993093,22.7673655 L64.222626,22.7673655 L64.222626,16.1860315 L66.0413835,16.1860315 L66.0413835,22.7608331 L68.1805731,22.7608331 L68.1805731,16.1896243 L69.2023841,16.1896243 C69.6289655,16.1896243 69.7711592,16.2676857 69.8177856,16.3137388 C69.8637505,16.3591385 69.9993306,16.5812381 69.9993306,17.0878212 L69.9993306,19.6808342 C70.0274387,19.9241639 69.9586566,20.1691267 69.8075344,20.3634638 C69.647153,20.4777798 69.4480818,20.5267724 69.2523173,20.500643 L68.8521906,20.500643 L68.8521906,22.7513612 L69.632603,22.7513612 C71.3848932,22.7513612 72.2780685,22.0324771 72.2780685,20.6152856 L72.2780685,15.9315968 Z M57.0762316,19.9290631 L55.161576,19.9290631 L55.161576,13.5374936 L57.0762316,13.5374936 L57.0762316,11.2933077 L55.161576,11.2933077 L55.161576,6.17195203 L57.0762316,6.17195203 L57.0762316,3.91535468 L50.9982746,3.91535468 L50.9982746,6.17195203 L52.8666346,6.17195203 L52.8666346,11.2933077 L50.9982746,11.2933077 L50.9982746,13.5374936 L52.8666346,13.5374936 L52.8666346,19.9290631 L50.9982746,19.9290631 L50.9982746,22.1957856 L57.0762316,22.1957856 L57.0762316,19.9290631 Z" id="Fill-1"></path>
                        </g>
                    </g>
                </g>
            </g>
        </g>
    </g>
</svg>